<mxfile host="app.diagrams.net" modified="2024-09-18T14:53:59.465Z" agent="Mozilla/5.0 (Windows NT 10.0; Win64; x64) AppleWebKit/537.36 (KHTML, like Gecko) Chrome/128.0.0.0 Safari/537.36 Edg/128.0.0.0" version="24.6.4" etag="meGWLhWGmRPEj5PBnSX6" type="github">
  <diagram name="Page-1" id="MsfbwUnx4sFHyL-43DM3">
    <mxGraphModel>
      <root>
        <mxCell id="0" />
        <mxCell id="1" parent="0" />
      </root>
    </mxGraphModel>
  </diagram>
</mxfile>
